<?xml version="1.0" encoding="UTF-8" standalone="no"?>
<!-- Created with Inkscape (http://www.inkscape.org/) -->

<svg
   xmlns:dc="http://purl.org/dc/elements/1.1/"
   xmlns:cc="http://creativecommons.org/ns#"
   xmlns:rdf="http://www.w3.org/1999/02/22-rdf-syntax-ns#"
   xmlns:svg="http://www.w3.org/2000/svg"
   xmlns="http://www.w3.org/2000/svg"
   version="1.1"
   width="242.50258"
   height="357.815"
   id="svg3395">
  <defs
     id="defs3397">
    <clipPath
       id="clipPath34">
      <path
         d="m 474.8,306 195.8883,0 0,286.274 -195.8883,0 0,-286.274 z"
         id="path36" />
    </clipPath>
  </defs>
  <metadata
     id="metadata3400">
    <rdf:RDF>
      <cc:Work
         rdf:about="">
        <dc:format>image/svg+xml</dc:format>
        <dc:type
           rdf:resource="http://purl.org/dc/dcmitype/StillImage" />
        <dc:title></dc:title>
      </cc:Work>
    </rdf:RDF>
  </metadata>
  <g
     transform="translate(-84.462995,-62.02615)"
     id="layer1">
    <g
       transform="matrix(1.25,0,0,-1.25,-188.95412,1161.5514)"
       id="g3192">
      <g
         transform="translate(-257.95255,287.3682)"
         clip-path="url(#clipPath34)"
         id="g32">
        <path
           d="m 476.6879,411.2374 c 11.374,-0.726 22.748,-1.455 34.122,-2.18 -0.001,-15.677 0,-31.355 0,-47.032 0,-4.671 2.365,-7.555 7.1,-8.656 4.571,-1.064 6.859,0.839 6.859,5.713 l 0,25.362 c -0.329,10.372 -6.047,20.197 -12.408,27.962 -9.744,11.894 -20.89,23.404 -29.827,35.73 -3.924,5.413 -5.846,11.589 -5.846,18.402 l 0,20.561 c -0.218,25.913 21.097,42.241 43.492,49.812 23.943,8.094 39.538,-3.817 38.952,-29.091 l 0,-40.804 c -11.375,-1.158 -22.75,-2.318 -34.125,-3.476 -10e-4,13.138 10e-4,26.277 10e-4,39.415 0,4.278 -1.906,5.964 -5.717,5.053 -4.461,-1.065 -6.691,-5.577 -6.691,-13.531 0.287,-5.289 0.431,-7.94 0.718,-13.254 0.535,-10.536 6.575,-18.218 12.678,-25.818 10.169,-12.662 22.295,-25.877 29.96,-40.75 4.471,-8.676 6.463,-18.647 6.396,-28.476 0.003,-10.125 -10e-4,-20.25 10e-4,-30.375 0.493,-28.467 -16.242,-42.408 -43.61,-33.248 -21.181,7.09 -42.26,22.235 -42.055,46.918 0,13.921 0,27.842 0,41.763"
           id="path38"
           style="fill:#231f20;fill-opacity:1;fill-rule:nonzero;stroke:none" />
        <path
           d="m 668.3559,337.9317 c -12.887,-4.121 -25.771,-8.251 -38.656,-12.379 -9.115,36.965 -17.546,74.074 -25.533,111.298 l 0,-119.478 c -10.459,-3.349 -20.919,-6.698 -31.378,-10.046 -0.006,81.45 -10e-4,162.9 -10e-4,244.351 14.237,-4.561 28.476,-9.12 42.713,-13.681 6.806,-33.268 13.92,-66.461 21.478,-99.567 l 0,92.69 c 10.459,-3.351 20.918,-6.701 31.377,-10.051 l 0,-183.137 z"
           id="path40"
           style="fill:#231f20;fill-opacity:1;fill-rule:nonzero;stroke:none" />
        <path
           d="m 572.5219,591.752 18.646,-5.664 0,-30.836 0,0.866 -18.646,5.664 -18.646,-5.664 0,-0.866 0,30.836 18.646,5.664 z"
           id="path42"
           style="fill:#231f20;fill-opacity:1;fill-rule:nonzero;stroke:none" />
        <g
           transform="translate(572.5219,591.752)"
           id="g44">
          <path
             d="m 0,0 18.646,-5.664 0,-30.836 0,0.866 L 0,-29.97 l -18.646,-5.664 0,-0.866 0,30.836 L 0,0 z"
             id="path46"
             style="fill:none;stroke:#231f20;stroke-width:1;stroke-linecap:butt;stroke-linejoin:miter;stroke-miterlimit:10;stroke-opacity:1;stroke-dasharray:none" />
        </g>
        <path
           d="m 970.853,542.335 c 0.257,-0.027 0.391,-0.329 0.391,-0.906 l 0,-65.233 c 0,-0.688 -0.134,-1.051 -0.391,-1.09 -22.866,-3.389 -45.732,-6.78 -68.599,-10.17 l 0,-18.016 c 22.867,2.059 45.733,4.118 68.599,6.179 0.257,-0.088 0.391,-0.483 0.391,-1.172 0,-51.751 0.005,-103.503 -0.002,-155.254 0,-0.689 -0.132,-0.989 -0.389,-0.905 -30.597,9.978 -61.194,19.955 -91.792,29.931 -0.249,0.081 -0.373,0.381 -0.373,0.902 l 0,49.28 c 0.031,0.516 0.155,0.757 0.373,0.725 22.867,-3.391 45.735,-6.78 68.603,-10.17 l 0,20.82 c -22.868,2.048 -45.736,4.096 -68.603,6.144 -0.249,0.023 -0.373,0.295 -0.373,0.815 l 0,117.285 c 0.031,0.53 0.155,0.831 0.373,0.901 30.598,9.976 61.195,19.955 91.792,29.934"
           id="path48"
           style="fill:#231f20;fill-opacity:1;fill-rule:nonzero;stroke:none" />
        <path
           d="m 1069.975,512.4039 c 0.249,-0.165 0.381,-0.513 0.381,-1.033 l 0,-184.77 c 0,-0.521 -0.132,-0.821 -0.381,-0.902 -9.146,-2.982 -13.719,-4.476 -22.865,-7.459 -0.218,-0.071 -0.328,0.177 -0.328,0.74 l 0,145.393 c -15.136,2.217 -30.272,4.433 -45.408,6.651 0,-55.576 0.01,-111.152 0,-166.728 0,-0.645 -0.108,-1.002 -0.326,-1.073 -9.146,-2.983 -13.719,-4.477 -22.865,-7.459 -0.249,-0.081 -0.383,0.221 -0.383,0.909 0.012,81.528 0.002,163.056 0.002,244.584 0.039,0.786 0.163,1.151 0.381,1.08 30.599,-9.975 61.196,-19.955 91.794,-29.933"
           id="path50"
           style="fill:#231f20;fill-opacity:1;fill-rule:nonzero;stroke:none" />
        <path
           d="m 974.5219,583.752 18.646,-5.664 0,-30.836 0,0.866 -18.646,5.664 -18.646,-5.664 0,-0.866 0,30.836 18.646,5.664 z"
           id="path52"
           style="fill:#231f20;fill-opacity:1;fill-rule:nonzero;stroke:none" />
        <g
           transform="translate(974.5219,583.752)"
           id="g54">
          <path
             d="m 0,0 18.646,-5.664 0,-30.836 0,0.866 L 0,-29.97 l -18.646,-5.664 0,-0.866 0,30.836 L 0,0 z"
             id="path56"
             style="fill:none;stroke:#231f20;stroke-width:1;stroke-linecap:butt;stroke-linejoin:miter;stroke-miterlimit:10;stroke-opacity:1;stroke-dasharray:none" />
        </g>
        <path
           d="m 662.8779,99.5782 c -2.392,0.78 -4.351,2.316 -5.886,4.565 -1.536,2.249 -2.304,4.706 -2.304,7.428 l 0,27.97 c 21.842,-4.275 43.686,-8.545 65.528,-12.82 l 0,45.836 c -16.381,1.071 -32.764,2.139 -49.146,3.208 -4.608,0.3 -8.709,2.406 -11.775,6.095 -3.088,3.717 -4.607,8.374 -4.607,13.618 l 0,74.585 c 0,5.048 1.521,9.908 4.607,14.523 3.16,4.724 7.166,7.96 11.774,9.463 24.574,8.01 49.147,16.023 73.72,24.039 2.215,0.722 4.07,-0.179 5.631,-2.051 1.482,-1.779 2.559,-5.904 2.559,-9.249 l 0,-37.103 c -22.029,-2.563 -43.767,-7.6 -65.528,-11.859 l 0,-41.563 c 16.383,1.07 32.765,2.136 49.147,3.203 4.435,0.289 8.281,-1.849 11.519,-6.591 3.24,-4.745 4.862,-10.699 4.862,-17.397 0,-32.98 -10e-4,-65.962 0,-98.942 0,-6.956 -1.613,-14.019 -4.862,-17.792 -3.127,-3.632 -7.084,-4.649 -11.519,-3.203 -24.574,8.011 -49.145,16.03 -73.72,24.037"
           id="path58"
           style="fill:#231f20;fill-opacity:1;fill-rule:nonzero;stroke:none" />
        <path
           d="m 756.2553,72.8692 0,12.261 c 3.276,0.962 4.913,1.442 8.189,2.404 0.006,71.963 10e-4,143.926 10e-4,215.889 -3.276,0.962 -4.914,1.442 -8.19,2.404 l 0,12.261 c 27.304,-8.901 54.606,-17.805 81.909,-26.709 2.215,-0.723 4.065,-2.482 5.63,-4.774 1.554,-2.275 2.562,-4.698 2.562,-7.219 l 0,-177.136 c -10.921,-3.563 -21.842,-7.123 -32.764,-10.684 l 0,176.653 c 0,2.81 -1.016,5.426 -2.56,7.786 -1.571,2.401 -3.415,4.164 -5.631,4.742 -2.391,0.624 -4.343,-0.09 -5.887,-1.856 -1.438,-1.643 -2.304,-3.979 -2.304,-6.934 l 0,-185.733 c -13.652,-4.45 -27.303,-8.905 -40.955,-13.355"
           id="path60"
           style="fill:#231f20;fill-opacity:1;fill-rule:nonzero;stroke:none" />
        <path
           d="m 754.5219,359.4278 18.646,-5.664 0,-30.836 0,0.865 -18.646,5.664 -18.646,-5.664 0,-0.865 0,30.836 18.646,5.664 z"
           id="path62"
           style="fill:#231f20;fill-opacity:1;fill-rule:nonzero;stroke:none" />
        <g
           transform="translate(754.5219,359.4278)"
           id="g64">
          <path
             d="m 0,0 18.646,-5.664 0,-30.836 0,0.865 -18.646,5.664 -18.646,-5.664 0,-0.865 0,30.836 L 0,0 z"
             id="path66"
             style="fill:none;stroke:#231f20;stroke-width:1;stroke-linecap:butt;stroke-linejoin:miter;stroke-miterlimit:10;stroke-opacity:1;stroke-dasharray:none" />
        </g>
      </g>
      <path
         d="m 218.73535,698.6056 c 11.374,-0.726 22.748,-1.455 34.122,-2.18 -0.001,-15.677 0,-31.355 0,-47.032 0,-4.671 2.365,-7.555 7.1,-8.656 4.571,-1.064 6.859,0.839 6.859,5.713 l 0,25.362 c -0.329,10.372 -6.047,20.197 -12.408,27.962 -9.744,11.894 -20.89,23.404 -29.827,35.73 -3.924,5.413 -5.846,11.589 -5.846,18.402 l 0,20.561 c -0.218,25.913 21.097,42.241 43.492,49.812 23.943,8.094 39.538,-3.817 38.952,-29.091 l 0,-40.804 c -11.375,-1.158 -22.75,-2.318 -34.125,-3.476 -10e-4,13.138 10e-4,26.277 10e-4,39.415 0,4.278 -1.906,5.964 -5.717,5.053 -4.461,-1.065 -6.691,-5.577 -6.691,-13.531 0.287,-5.289 0.431,-7.94 0.718,-13.254 0.535,-10.536 6.575,-18.218 12.678,-25.818 10.169,-12.662 22.295,-25.877 29.96,-40.75 4.471,-8.676 6.463,-18.647 6.396,-28.476 0.003,-10.125 -0.001,-20.25 10e-4,-30.375 0.493,-28.467 -16.242,-42.408 -43.61,-33.248 -21.181,7.09 -42.26,22.235 -42.055,46.918 0,13.921 0,27.842 0,41.763"
         id="path3147"
         style="fill:#231f20;fill-opacity:1;fill-rule:nonzero;stroke:none" />
      <path
         d="m 410.40335,625.2999 c -12.887,-4.121 -25.771,-8.251 -38.656,-12.379 -9.115,36.965 -17.546,74.074 -25.533,111.298 l 0,-119.478 c -10.459,-3.349 -20.919,-6.698 -31.378,-10.046 -0.006,81.45 -10e-4,162.9 -10e-4,244.351 14.237,-4.561 28.476,-9.12 42.713,-13.681 6.806,-33.268 13.92,-66.461 21.478,-99.567 l 0,92.69 c 10.459,-3.351 20.918,-6.701 31.377,-10.051 l 0,-183.137 z"
         id="path3149"
         style="fill:#231f20;fill-opacity:1;fill-rule:nonzero;stroke:none" />
      <path
         d="m 314.56935,879.1202 18.646,-5.664 0,-30.836 0,0.866 -18.646,5.664 -18.646,-5.664 0,-0.866 0,30.836 18.646,5.664 z"
         id="path3151"
         style="fill:#231f20;fill-opacity:1;fill-rule:nonzero;stroke:none" />
      <g
         transform="translate(314.56935,879.1202)"
         id="g3153">
        <path
           d="m 0,0 18.646,-5.664 0,-30.836 0,0.866 L 0,-29.97 l -18.646,-5.664 0,-0.866 0,30.836 L 0,0 z"
           id="path3155"
           style="fill:none;stroke:#231f20;stroke-width:1;stroke-linecap:butt;stroke-linejoin:miter;stroke-miterlimit:10;stroke-opacity:1;stroke-dasharray:none" />
      </g>
    </g>
  </g>
</svg>
