<?xml version="1.0" encoding="UTF-8" standalone="no"?>
<!-- Created with Inkscape (http://www.inkscape.org/) -->

<svg
   xmlns:dc="http://purl.org/dc/elements/1.1/"
   xmlns:cc="http://creativecommons.org/ns#"
   xmlns:rdf="http://www.w3.org/1999/02/22-rdf-syntax-ns#"
   xmlns:svg="http://www.w3.org/2000/svg"
   xmlns="http://www.w3.org/2000/svg"
   version="1.1"
   width="239.58501"
   height="360.62619"
   id="svg3229">
  <defs
     id="defs3231" />
  <metadata
     id="metadata3234">
    <rdf:RDF>
      <cc:Work
         rdf:about="">
        <dc:format>image/svg+xml</dc:format>
        <dc:type
           rdf:resource="http://purl.org/dc/dcmitype/StillImage" />
        <dc:title></dc:title>
      </cc:Work>
    </rdf:RDF>
  </metadata>
  <g
     transform="translate(-23.064642,-23.47762)"
     id="layer1">
    <g
       transform="matrix(1.25,0,0,-1.25,-310.20582,592.57227)"
       id="g3222">
      <path
         d="m 358.78137,413.35872 c 0.257,-0.027 0.391,-0.329 0.391,-0.906 l 0,-65.233 c 0,-0.688 -0.134,-1.051 -0.391,-1.09 -22.866,-3.389 -45.732,-6.78 -68.599,-10.17 l 0,-18.016 c 22.867,2.059 45.733,4.118 68.599,6.179 0.257,-0.088 0.391,-0.483 0.391,-1.172 0,-51.751 0.005,-103.503 -0.002,-155.254 0,-0.689 -0.132,-0.989 -0.389,-0.905 -30.597,9.978 -61.194,19.955 -91.792,29.931 -0.249,0.081 -0.373,0.381 -0.373,0.902 l 0,49.28 c 0.031,0.516 0.155,0.757 0.373,0.725 22.867,-3.391 45.735,-6.78 68.603,-10.17 l 0,20.82 c -22.868,2.048 -45.736,4.096 -68.603,6.144 -0.249,0.023 -0.373,0.295 -0.373,0.815 l 0,117.285 c 0.031,0.53 0.155,0.831 0.373,0.901 30.598,9.976 61.195,19.955 91.792,29.934"
         id="path3157"
         style="fill:#231f20;fill-opacity:1;fill-rule:nonzero;stroke:none" />
      <path
         d="m 457.90337,383.42762 c 0.249,-0.165 0.381,-0.513 0.381,-1.033 l 0,-184.77 c 0,-0.521 -0.132,-0.821 -0.381,-0.902 -9.146,-2.982 -13.719,-4.476 -22.865,-7.459 -0.218,-0.071 -0.328,0.177 -0.328,0.74 l 0,145.393 c -15.136,2.217 -30.272,4.433 -45.408,6.651 0,-55.576 0.01,-111.152 0,-166.728 0,-0.645 -0.108,-1.002 -0.326,-1.073 -9.146,-2.983 -13.719,-4.477 -22.865,-7.459 -0.249,-0.081 -0.383,0.221 -0.383,0.909 0.012,81.528 0.002,163.056 0.002,244.584 0.039,0.786 0.163,1.151 0.381,1.08 30.599,-9.975 61.196,-19.955 91.794,-29.933"
         id="path3159"
         style="fill:#231f20;fill-opacity:1;fill-rule:nonzero;stroke:none" />
      <path
         d="m 362.45027,454.77572 18.646,-5.664 0,-30.836 0,0.866 -18.646,5.664 -18.646,-5.664 0,-0.866 0,30.836 18.646,5.664 z"
         id="path3161"
         style="fill:#231f20;fill-opacity:1;fill-rule:nonzero;stroke:none" />
      <g
         transform="translate(362.45027,454.77572)"
         id="g3163">
        <path
           d="m 0,0 18.646,-5.664 0,-30.836 0,0.866 L 0,-29.97 l -18.646,-5.664 0,-0.866 0,30.836 L 0,0 z"
           id="path3165"
           style="fill:none;stroke:#231f20;stroke-width:1;stroke-linecap:butt;stroke-linejoin:miter;stroke-miterlimit:10;stroke-opacity:1;stroke-dasharray:none" />
      </g>
    </g>
  </g>
</svg>
